<svg width="660" height="496" viewBox="0 0 660 496" fill="none" xmlns="http://www.w3.org/2000/svg">
<g clip-path="url(#clip0_1_390)">
<rect y="0.5" width="660" height="495" rx="40" fill="#F3FFA7"/>
<g filter="url(#filter0_f_1_390)">
<ellipse cx="424.5" cy="265.5" rx="166.5" ry="139" fill="#111111" fill-opacity="0.15"/>
</g>
<rect x="308" y="30.5" width="44" height="44" rx="22" fill="#F8FBF1"/>
<rect x="308" y="30.5" width="44" height="44" rx="22" stroke="#E4E7DD" stroke-dasharray="4 4"/>
<path d="M338 46.5L327 57.5L322 52.5" stroke="#111111" stroke-width="2" stroke-linecap="round" stroke-linejoin="round"/>
<line x1="330.5" y1="78.5" x2="330.5" y2="98.5" stroke="#C6C9BF" stroke-dasharray="5 5"/>
<rect x="130" y="102.5" width="400" height="241" rx="40" fill="#F8FBF1"/>
<rect x="130" y="102.5" width="400" height="241" rx="40" stroke="#E4E7DD"/>
<path d="M162.911 142.5H161.427V135.003L156.464 142.5H154.98V132.42H156.464V139.91L161.427 132.42H162.911V142.5ZM164.858 142.5V134.94H166.321V138.027H170.01V134.94H171.473V142.5H170.01V139.406H166.321V142.5H164.858ZM175.39 142.5V136.256H172.807V134.94H179.436V136.256H176.853V142.5H175.39ZM184.118 142.71C183.367 142.71 182.706 142.547 182.137 142.22C181.572 141.889 181.131 141.429 180.814 140.841C180.501 140.248 180.345 139.562 180.345 138.783C180.345 137.957 180.499 137.241 180.807 136.634C181.12 136.027 181.554 135.558 182.109 135.227C182.664 134.896 183.311 134.73 184.048 134.73C184.818 134.73 185.474 134.91 186.015 135.269C186.556 135.624 186.96 136.13 187.226 136.788C187.497 137.446 187.604 138.228 187.548 139.133H186.085V138.601C186.076 137.724 185.908 137.075 185.581 136.655C185.259 136.235 184.767 136.025 184.104 136.025C183.371 136.025 182.821 136.256 182.452 136.718C182.083 137.18 181.899 137.847 181.899 138.72C181.899 139.551 182.083 140.195 182.452 140.652C182.821 141.105 183.353 141.331 184.048 141.331C184.505 141.331 184.9 141.228 185.231 141.023C185.567 140.813 185.828 140.514 186.015 140.127L187.45 140.582C187.156 141.259 186.71 141.784 186.113 142.157C185.516 142.526 184.851 142.71 184.118 142.71ZM181.423 139.133V137.992H186.82V139.133H181.423ZM192.668 142.71C191.944 142.71 191.338 142.535 190.848 142.185C190.358 141.83 189.987 141.352 189.735 140.75C189.483 140.148 189.357 139.469 189.357 138.713C189.357 137.957 189.48 137.278 189.728 136.676C189.98 136.074 190.348 135.6 190.834 135.255C191.324 134.905 191.926 134.73 192.64 134.73C193.349 134.73 193.96 134.905 194.474 135.255C194.992 135.6 195.391 136.074 195.671 136.676C195.951 137.273 196.091 137.952 196.091 138.713C196.091 139.469 195.951 140.15 195.671 140.757C195.395 141.359 195.001 141.835 194.488 142.185C193.979 142.535 193.372 142.71 192.668 142.71ZM189.112 145.86V134.94H190.414V140.379H190.582V145.86H189.112ZM192.465 141.387C192.931 141.387 193.316 141.268 193.62 141.03C193.928 140.792 194.156 140.472 194.306 140.071C194.46 139.665 194.537 139.212 194.537 138.713C194.537 138.218 194.46 137.77 194.306 137.369C194.156 136.968 193.925 136.648 193.613 136.41C193.3 136.172 192.901 136.053 192.416 136.053C191.958 136.053 191.58 136.165 191.282 136.389C190.988 136.613 190.768 136.926 190.624 137.327C190.484 137.728 190.414 138.19 190.414 138.713C190.414 139.236 190.484 139.698 190.624 140.099C190.764 140.5 190.985 140.815 191.289 141.044C191.592 141.273 191.984 141.387 192.465 141.387ZM197.629 142.5V134.94H200.954C201.174 134.94 201.393 134.954 201.612 134.982C201.832 135.005 202.025 135.04 202.193 135.087C202.576 135.194 202.903 135.409 203.173 135.731C203.444 136.048 203.579 136.473 203.579 137.005C203.579 137.308 203.533 137.565 203.439 137.775C203.346 137.98 203.218 138.158 203.054 138.307C202.98 138.372 202.9 138.431 202.816 138.482C202.732 138.533 202.648 138.573 202.564 138.601C202.737 138.629 202.907 138.69 203.075 138.783C203.332 138.918 203.542 139.114 203.705 139.371C203.873 139.623 203.957 139.961 203.957 140.386C203.957 140.895 203.834 141.322 203.586 141.667C203.339 142.008 202.989 142.241 202.536 142.367C202.359 142.418 202.158 142.453 201.934 142.472C201.715 142.491 201.496 142.5 201.276 142.5H197.629ZM199.113 141.345H201.185C201.283 141.345 201.395 141.336 201.521 141.317C201.647 141.298 201.759 141.273 201.857 141.24C202.067 141.175 202.217 141.056 202.305 140.883C202.399 140.71 202.445 140.526 202.445 140.33C202.445 140.064 202.375 139.852 202.235 139.693C202.095 139.53 201.918 139.425 201.703 139.378C201.61 139.345 201.507 139.327 201.395 139.322C201.283 139.317 201.188 139.315 201.108 139.315H199.113V141.345ZM199.113 138.139H200.751C200.887 138.139 201.024 138.132 201.164 138.118C201.304 138.099 201.426 138.069 201.528 138.027C201.71 137.957 201.846 137.84 201.934 137.677C202.023 137.509 202.067 137.327 202.067 137.131C202.067 136.916 202.018 136.725 201.92 136.557C201.822 136.389 201.675 136.272 201.479 136.207C201.344 136.16 201.188 136.135 201.01 136.13C200.838 136.121 200.728 136.116 200.681 136.116H199.113V138.139ZM211.745 142.71C211.12 142.71 210.562 142.579 210.072 142.318C209.587 142.057 209.19 141.683 208.882 141.198C208.574 140.708 208.378 140.127 208.294 139.455H206.817V142.5H205.354V134.94H206.817V137.985H208.287C208.371 137.299 208.569 136.713 208.882 136.228C209.195 135.743 209.596 135.372 210.086 135.115C210.581 134.858 211.141 134.73 211.766 134.73C212.517 134.73 213.168 134.9 213.719 135.241C214.27 135.582 214.697 136.053 215 136.655C215.303 137.252 215.455 137.936 215.455 138.706C215.455 139.495 215.301 140.19 214.993 140.792C214.69 141.394 214.26 141.865 213.705 142.206C213.15 142.542 212.496 142.71 211.745 142.71ZM211.724 141.331C212.457 141.331 213.003 141.088 213.362 140.603C213.721 140.118 213.901 139.488 213.901 138.713C213.901 137.915 213.719 137.283 213.355 136.816C212.996 136.345 212.454 136.109 211.731 136.109C211.026 136.109 210.494 136.345 210.135 136.816C209.776 137.283 209.596 137.913 209.596 138.706C209.596 139.504 209.776 140.141 210.135 140.617C210.499 141.093 211.029 141.331 211.724 141.331ZM226.168 134.94V142.5H224.761V137.243L220.981 142.5H219.791V134.94H221.198V140.092L224.985 134.94H226.168ZM230.92 142.5V134.94H237.297V142.5H235.834V136.319H232.383V142.5H230.92ZM242.536 142.71C241.78 142.71 241.125 142.54 240.569 142.199C240.014 141.858 239.585 141.389 239.281 140.792C238.983 140.19 238.833 139.497 238.833 138.713C238.833 137.924 238.987 137.231 239.295 136.634C239.603 136.032 240.035 135.565 240.59 135.234C241.146 134.898 241.794 134.73 242.536 134.73C243.292 134.73 243.948 134.9 244.503 135.241C245.059 135.582 245.488 136.051 245.791 136.648C246.095 137.245 246.246 137.934 246.246 138.713C246.246 139.502 246.092 140.197 245.784 140.799C245.481 141.396 245.052 141.865 244.496 142.206C243.941 142.542 243.288 142.71 242.536 142.71ZM242.536 141.331C243.26 141.331 243.799 141.088 244.153 140.603C244.513 140.113 244.692 139.483 244.692 138.713C244.692 137.924 244.51 137.294 244.146 136.823C243.787 136.347 243.25 136.109 242.536 136.109C242.046 136.109 241.643 136.221 241.325 136.445C241.008 136.664 240.772 136.97 240.618 137.362C240.464 137.749 240.387 138.2 240.387 138.713C240.387 139.506 240.569 140.141 240.933 140.617C241.297 141.093 241.832 141.331 242.536 141.331ZM247.225 144.18V141.324C247.64 141.324 247.936 141.186 248.114 140.911C248.296 140.631 248.44 140.157 248.548 139.49C248.613 139.084 248.667 138.652 248.709 138.195C248.755 137.738 248.795 137.243 248.828 136.711C248.86 136.174 248.893 135.584 248.926 134.94H254.344V141.324H255.086V144.18H253.7V142.5H248.618V144.18H247.225ZM249.318 141.324H252.874V136.116H250.228C250.209 136.424 250.188 136.741 250.165 137.068C250.146 137.395 250.123 137.719 250.095 138.041C250.071 138.363 250.043 138.671 250.011 138.965C249.978 139.259 249.941 139.525 249.899 139.763C249.843 140.132 249.775 140.44 249.696 140.687C249.621 140.934 249.495 141.147 249.318 141.324ZM259.588 142.717C258.869 142.712 258.258 142.556 257.754 142.248C257.25 141.94 256.856 141.497 256.571 140.918C256.291 140.335 256.128 139.632 256.081 138.811C256.058 138.414 256.06 137.976 256.088 137.495C256.116 137.01 256.167 136.541 256.242 136.088C256.321 135.635 256.422 135.257 256.543 134.954C256.678 134.618 256.863 134.31 257.096 134.03C257.329 133.745 257.586 133.507 257.866 133.316C258.165 133.111 258.496 132.952 258.86 132.84C259.224 132.723 259.604 132.632 260.001 132.567C260.402 132.502 260.806 132.446 261.212 132.399C261.623 132.348 262.022 132.285 262.409 132.21L262.549 133.519C262.292 133.58 261.989 133.629 261.639 133.666C261.294 133.703 260.934 133.745 260.561 133.792C260.192 133.839 259.84 133.904 259.504 133.988C259.168 134.072 258.876 134.191 258.629 134.345C258.279 134.56 258.011 134.872 257.824 135.283C257.642 135.694 257.532 136.139 257.495 136.62C257.784 136.181 258.153 135.866 258.601 135.675C259.049 135.479 259.513 135.381 259.994 135.381C260.666 135.381 261.245 135.54 261.73 135.857C262.22 136.174 262.596 136.606 262.857 137.152C263.118 137.698 263.249 138.316 263.249 139.007C263.249 139.754 263.095 140.407 262.787 140.967C262.484 141.522 262.057 141.956 261.506 142.269C260.955 142.577 260.316 142.726 259.588 142.717ZM259.665 141.338C260.337 141.338 260.843 141.13 261.184 140.715C261.529 140.3 261.702 139.747 261.702 139.056C261.702 138.347 261.525 137.789 261.17 137.383C260.815 136.977 260.314 136.774 259.665 136.774C259.007 136.774 258.503 136.977 258.153 137.383C257.808 137.789 257.635 138.347 257.635 139.056C257.635 139.775 257.81 140.335 258.16 140.736C258.51 141.137 259.012 141.338 259.665 141.338ZM271.163 134.94V142.5H269.756V137.243L265.976 142.5H264.786V134.94H266.193V140.092L269.98 134.94H271.163ZM276.668 142.71C275.944 142.71 275.338 142.535 274.848 142.185C274.358 141.83 273.987 141.352 273.735 140.75C273.483 140.148 273.357 139.469 273.357 138.713C273.357 137.957 273.48 137.278 273.728 136.676C273.98 136.074 274.348 135.6 274.834 135.255C275.324 134.905 275.926 134.73 276.64 134.73C277.349 134.73 277.96 134.905 278.474 135.255C278.992 135.6 279.391 136.074 279.671 136.676C279.951 137.273 280.091 137.952 280.091 138.713C280.091 139.469 279.951 140.15 279.671 140.757C279.395 141.359 279.001 141.835 278.488 142.185C277.979 142.535 277.372 142.71 276.668 142.71ZM273.112 145.86V134.94H274.414V140.379H274.582V145.86H273.112ZM276.465 141.387C276.931 141.387 277.316 141.268 277.62 141.03C277.928 140.792 278.156 140.472 278.306 140.071C278.46 139.665 278.537 139.212 278.537 138.713C278.537 138.218 278.46 137.77 278.306 137.369C278.156 136.968 277.925 136.648 277.613 136.41C277.3 136.172 276.901 136.053 276.416 136.053C275.958 136.053 275.58 136.165 275.282 136.389C274.988 136.613 274.768 136.926 274.624 137.327C274.484 137.728 274.414 138.19 274.414 138.713C274.414 139.236 274.484 139.698 274.624 140.099C274.764 140.5 274.985 140.815 275.289 141.044C275.592 141.273 275.984 141.387 276.465 141.387ZM283.771 142.71C283.211 142.71 282.742 142.607 282.364 142.402C281.986 142.192 281.699 141.917 281.503 141.576C281.312 141.231 281.216 140.853 281.216 140.442C281.216 140.059 281.284 139.723 281.419 139.434C281.555 139.145 281.755 138.9 282.021 138.699C282.287 138.494 282.614 138.328 283.001 138.202C283.337 138.104 283.718 138.018 284.142 137.943C284.567 137.868 285.013 137.798 285.479 137.733C285.951 137.668 286.417 137.602 286.879 137.537L286.347 137.831C286.357 137.238 286.231 136.8 285.969 136.515C285.713 136.226 285.269 136.081 284.639 136.081C284.243 136.081 283.879 136.174 283.547 136.361C283.216 136.543 282.985 136.846 282.854 137.271L281.489 136.851C281.676 136.202 282.031 135.687 282.553 135.304C283.081 134.921 283.781 134.73 284.653 134.73C285.33 134.73 285.918 134.847 286.417 135.08C286.921 135.309 287.29 135.673 287.523 136.172C287.645 136.419 287.719 136.681 287.747 136.956C287.775 137.231 287.789 137.528 287.789 137.845V142.5H286.494V140.771L286.746 140.995C286.434 141.574 286.035 142.005 285.549 142.29C285.069 142.57 284.476 142.71 283.771 142.71ZM284.03 141.513C284.446 141.513 284.803 141.441 285.101 141.296C285.4 141.147 285.64 140.958 285.822 140.729C286.004 140.5 286.123 140.262 286.179 140.015C286.259 139.791 286.303 139.539 286.312 139.259C286.326 138.979 286.333 138.755 286.333 138.587L286.809 138.762C286.347 138.832 285.927 138.895 285.549 138.951C285.171 139.007 284.828 139.063 284.52 139.119C284.217 139.17 283.946 139.233 283.708 139.308C283.508 139.378 283.328 139.462 283.169 139.56C283.015 139.658 282.892 139.777 282.798 139.917C282.71 140.057 282.665 140.227 282.665 140.428C282.665 140.624 282.714 140.806 282.812 140.974C282.91 141.137 283.06 141.268 283.26 141.366C283.461 141.464 283.718 141.513 284.03 141.513ZM289.6 142.5V134.94H291.063V138.027H294.752V134.94H296.215V142.5H294.752V139.406H291.063V142.5H289.6ZM301.532 142.71C300.781 142.71 300.121 142.547 299.551 142.22C298.987 141.889 298.546 141.429 298.228 140.841C297.916 140.248 297.759 139.562 297.759 138.783C297.759 137.957 297.913 137.241 298.221 136.634C298.534 136.027 298.968 135.558 299.523 135.227C300.079 134.896 300.725 134.73 301.462 134.73C302.232 134.73 302.888 134.91 303.429 135.269C303.971 135.624 304.374 136.13 304.64 136.788C304.911 137.446 305.018 138.228 304.962 139.133H303.499V138.601C303.49 137.724 303.322 137.075 302.995 136.655C302.673 136.235 302.181 136.025 301.518 136.025C300.786 136.025 300.235 136.256 299.866 136.718C299.498 137.18 299.313 137.847 299.313 138.72C299.313 139.551 299.498 140.195 299.866 140.652C300.235 141.105 300.767 141.331 301.462 141.331C301.92 141.331 302.314 141.228 302.645 141.023C302.981 140.813 303.243 140.514 303.429 140.127L304.864 140.582C304.57 141.259 304.125 141.784 303.527 142.157C302.93 142.526 302.265 142.71 301.532 142.71ZM298.837 139.133V137.992H304.234V139.133H298.837ZM309.328 142.5V134.94H310.791V138.027H314.48V134.94H315.943V142.5H314.48V139.406H310.791V142.5H309.328ZM320.043 142.71C319.483 142.71 319.014 142.607 318.636 142.402C318.258 142.192 317.971 141.917 317.775 141.576C317.583 141.231 317.488 140.853 317.488 140.442C317.488 140.059 317.555 139.723 317.691 139.434C317.826 139.145 318.027 138.9 318.293 138.699C318.559 138.494 318.885 138.328 319.273 138.202C319.609 138.104 319.989 138.018 320.414 137.943C320.838 137.868 321.284 137.798 321.751 137.733C322.222 137.668 322.689 137.602 323.151 137.537L322.619 137.831C322.628 137.238 322.502 136.8 322.241 136.515C321.984 136.226 321.541 136.081 320.911 136.081C320.514 136.081 320.15 136.174 319.819 136.361C319.487 136.543 319.256 136.846 319.126 137.271L317.761 136.851C317.947 136.202 318.302 135.687 318.825 135.304C319.352 134.921 320.052 134.73 320.925 134.73C321.601 134.73 322.189 134.847 322.689 135.08C323.193 135.309 323.561 135.673 323.795 136.172C323.916 136.419 323.991 136.681 324.019 136.956C324.047 137.231 324.061 137.528 324.061 137.845V142.5H322.766V140.771L323.018 140.995C322.705 141.574 322.306 142.005 321.821 142.29C321.34 142.57 320.747 142.71 320.043 142.71ZM320.302 141.513C320.717 141.513 321.074 141.441 321.373 141.296C321.671 141.147 321.912 140.958 322.094 140.729C322.276 140.5 322.395 140.262 322.451 140.015C322.53 139.791 322.574 139.539 322.584 139.259C322.598 138.979 322.605 138.755 322.605 138.587L323.081 138.762C322.619 138.832 322.199 138.895 321.821 138.951C321.443 139.007 321.1 139.063 320.792 139.119C320.488 139.17 320.218 139.233 319.98 139.308C319.779 139.378 319.599 139.462 319.441 139.56C319.287 139.658 319.163 139.777 319.07 139.917C318.981 140.057 318.937 140.227 318.937 140.428C318.937 140.624 318.986 140.806 319.084 140.974C319.182 141.137 319.331 141.268 319.532 141.366C319.732 141.464 319.989 141.513 320.302 141.513ZM328.674 142.5V134.94H335.051V142.5H333.588V136.319H330.137V142.5H328.674ZM340.29 142.71C339.534 142.71 338.879 142.54 338.323 142.199C337.768 141.858 337.339 141.389 337.035 140.792C336.737 140.19 336.587 139.497 336.587 138.713C336.587 137.924 336.741 137.231 337.049 136.634C337.357 136.032 337.789 135.565 338.344 135.234C338.9 134.898 339.548 134.73 340.29 134.73C341.046 134.73 341.702 134.9 342.257 135.241C342.813 135.582 343.242 136.051 343.545 136.648C343.849 137.245 344 137.934 344 138.713C344 139.502 343.846 140.197 343.538 140.799C343.235 141.396 342.806 141.865 342.25 142.206C341.695 142.542 341.042 142.71 340.29 142.71ZM340.29 141.331C341.014 141.331 341.553 141.088 341.907 140.603C342.267 140.113 342.446 139.483 342.446 138.713C342.446 137.924 342.264 137.294 341.9 136.823C341.541 136.347 341.004 136.109 340.29 136.109C339.8 136.109 339.397 136.221 339.079 136.445C338.762 136.664 338.526 136.97 338.372 137.362C338.218 137.749 338.141 138.2 338.141 138.713C338.141 139.506 338.323 140.141 338.687 140.617C339.051 141.093 339.586 141.331 340.29 141.331ZM344.979 144.18V141.324C345.394 141.324 345.69 141.186 345.868 140.911C346.05 140.631 346.194 140.157 346.302 139.49C346.367 139.084 346.421 138.652 346.463 138.195C346.509 137.738 346.549 137.243 346.582 136.711C346.614 136.174 346.647 135.584 346.68 134.94H352.098V141.324H352.84V144.18H351.454V142.5H346.372V144.18H344.979ZM347.072 141.324H350.628V136.116H347.982C347.963 136.424 347.942 136.741 347.919 137.068C347.9 137.395 347.877 137.719 347.849 138.041C347.825 138.363 347.797 138.671 347.765 138.965C347.732 139.259 347.695 139.525 347.653 139.763C347.597 140.132 347.529 140.44 347.45 140.687C347.375 140.934 347.249 141.147 347.072 141.324ZM353.394 142.5L356.222 138.678L353.457 134.94H355.193L357.076 137.537L358.938 134.94H360.674L357.909 138.678L360.744 142.5H359.001L357.076 139.819L355.137 142.5H353.394ZM364.872 142.71C364.116 142.71 363.461 142.54 362.905 142.199C362.35 141.858 361.921 141.389 361.617 140.792C361.319 140.19 361.169 139.497 361.169 138.713C361.169 137.924 361.323 137.231 361.631 136.634C361.939 136.032 362.371 135.565 362.926 135.234C363.482 134.898 364.13 134.73 364.872 134.73C365.628 134.73 366.284 134.9 366.839 135.241C367.395 135.582 367.824 136.051 368.127 136.648C368.431 137.245 368.582 137.934 368.582 138.713C368.582 139.502 368.428 140.197 368.12 140.799C367.817 141.396 367.388 141.865 366.832 142.206C366.277 142.542 365.624 142.71 364.872 142.71ZM364.872 141.331C365.596 141.331 366.135 141.088 366.489 140.603C366.849 140.113 367.028 139.483 367.028 138.713C367.028 137.924 366.846 137.294 366.482 136.823C366.123 136.347 365.586 136.109 364.872 136.109C364.382 136.109 363.979 136.221 363.661 136.445C363.344 136.664 363.108 136.97 362.954 137.362C362.8 137.749 362.723 138.2 362.723 138.713C362.723 139.506 362.905 140.141 363.269 140.617C363.633 141.093 364.168 141.331 364.872 141.331ZM369.561 144.18V141.324C369.976 141.324 370.272 141.186 370.45 140.911C370.632 140.631 370.776 140.157 370.884 139.49C370.949 139.084 371.003 138.652 371.045 138.195C371.091 137.738 371.131 137.243 371.164 136.711C371.196 136.174 371.229 135.584 371.262 134.94H376.68V141.324H377.422V144.18H376.036V142.5H370.954V144.18H369.561ZM371.654 141.324H375.21V136.116H372.564C372.545 136.424 372.524 136.741 372.501 137.068C372.482 137.395 372.459 137.719 372.431 138.041C372.407 138.363 372.379 138.671 372.347 138.965C372.314 139.259 372.277 139.525 372.235 139.763C372.179 140.132 372.111 140.44 372.032 140.687C371.957 140.934 371.831 141.147 371.654 141.324ZM383.415 142.5V139.875H381.917C381.74 139.875 381.527 139.868 381.28 139.854C381.037 139.84 380.809 139.814 380.594 139.777C380.029 139.674 379.558 139.429 379.18 139.042C378.802 138.65 378.613 138.111 378.613 137.425C378.613 136.762 378.79 136.23 379.145 135.829C379.504 135.423 379.959 135.162 380.51 135.045C380.748 134.989 380.991 134.959 381.238 134.954C381.49 134.945 381.702 134.94 381.875 134.94H384.878L384.885 142.5H383.415ZM378.396 142.5L380.307 139.511H381.854L379.957 142.5H378.396ZM381.791 138.699H383.415V136.116H381.791C381.688 136.116 381.562 136.121 381.413 136.13C381.264 136.139 381.119 136.165 380.979 136.207C380.834 136.249 380.694 136.324 380.559 136.431C380.428 136.538 380.321 136.676 380.237 136.844C380.153 137.007 380.111 137.196 380.111 137.411C380.111 137.733 380.202 137.999 380.384 138.209C380.566 138.414 380.783 138.55 381.035 138.615C381.17 138.652 381.306 138.676 381.441 138.685C381.576 138.694 381.693 138.699 381.791 138.699ZM395.136 143.991V142.5H386.834V134.94H388.241V141.184H390.614V134.94H392.021V141.184H394.387V134.94H395.794V141.184H396.599V143.991H395.136ZM399.859 142.71C399.299 142.71 398.83 142.607 398.452 142.402C398.074 142.192 397.787 141.917 397.591 141.576C397.4 141.231 397.304 140.853 397.304 140.442C397.304 140.059 397.372 139.723 397.507 139.434C397.642 139.145 397.843 138.9 398.109 138.699C398.375 138.494 398.702 138.328 399.089 138.202C399.425 138.104 399.805 138.018 400.23 137.943C400.655 137.868 401.1 137.798 401.567 137.733C402.038 137.668 402.505 137.602 402.967 137.537L402.435 137.831C402.444 137.238 402.318 136.8 402.057 136.515C401.8 136.226 401.357 136.081 400.727 136.081C400.33 136.081 399.966 136.174 399.635 136.361C399.304 136.543 399.073 136.846 398.942 137.271L397.577 136.851C397.764 136.202 398.118 135.687 398.641 135.304C399.168 134.921 399.868 134.73 400.741 134.73C401.418 134.73 402.006 134.847 402.505 135.08C403.009 135.309 403.378 135.673 403.611 136.172C403.732 136.419 403.807 136.681 403.835 136.956C403.863 137.231 403.877 137.528 403.877 137.845V142.5H402.582V140.771L402.834 140.995C402.521 141.574 402.122 142.005 401.637 142.29C401.156 142.57 400.564 142.71 399.859 142.71ZM400.118 141.513C400.533 141.513 400.89 141.441 401.189 141.296C401.488 141.147 401.728 140.958 401.91 140.729C402.092 140.5 402.211 140.262 402.267 140.015C402.346 139.791 402.391 139.539 402.4 139.259C402.414 138.979 402.421 138.755 402.421 138.587L402.897 138.762C402.435 138.832 402.015 138.895 401.637 138.951C401.259 139.007 400.916 139.063 400.608 139.119C400.305 139.17 400.034 139.233 399.796 139.308C399.595 139.378 399.416 139.462 399.257 139.56C399.103 139.658 398.979 139.777 398.886 139.917C398.797 140.057 398.753 140.227 398.753 140.428C398.753 140.624 398.802 140.806 398.9 140.974C398.998 141.137 399.147 141.268 399.348 141.366C399.549 141.464 399.805 141.513 400.118 141.513ZM408.491 142.5V134.94H414.868V142.5H413.405V136.319H409.954V142.5H408.491ZM420.107 142.71C419.351 142.71 418.695 142.54 418.14 142.199C417.584 141.858 417.155 141.389 416.852 140.792C416.553 140.19 416.404 139.497 416.404 138.713C416.404 137.924 416.558 137.231 416.866 136.634C417.174 136.032 417.605 135.565 418.161 135.234C418.716 134.898 419.365 134.73 420.107 134.73C420.863 134.73 421.518 134.9 422.074 135.241C422.629 135.582 423.058 136.051 423.362 136.648C423.665 137.245 423.817 137.934 423.817 138.713C423.817 139.502 423.663 140.197 423.355 140.799C423.051 141.396 422.622 141.865 422.067 142.206C421.511 142.542 420.858 142.71 420.107 142.71ZM420.107 141.331C420.83 141.331 421.369 141.088 421.724 140.603C422.083 140.113 422.263 139.483 422.263 138.713C422.263 137.924 422.081 137.294 421.717 136.823C421.357 136.347 420.821 136.109 420.107 136.109C419.617 136.109 419.213 136.221 418.896 136.445C418.578 136.664 418.343 136.97 418.189 137.362C418.035 137.749 417.958 138.2 417.958 138.713C417.958 139.506 418.14 140.141 418.504 140.617C418.868 141.093 419.402 141.331 420.107 141.331ZM427.845 142.71C427.112 142.71 426.454 142.554 425.871 142.241C425.292 141.928 424.835 141.497 424.499 140.946L425.661 140.183C425.932 140.547 426.244 140.829 426.599 141.03C426.958 141.231 427.362 141.331 427.81 141.331C428.277 141.331 428.645 141.226 428.916 141.016C429.191 140.801 429.329 140.514 429.329 140.155C429.329 139.87 429.25 139.66 429.091 139.525C428.937 139.385 428.722 139.294 428.447 139.252C428.176 139.21 427.868 139.189 427.523 139.189H426.851V138.013H427.523C427.98 138.013 428.356 137.95 428.65 137.824C428.949 137.693 429.098 137.448 429.098 137.089C429.098 136.739 428.97 136.487 428.713 136.333C428.461 136.179 428.16 136.102 427.81 136.102C427.418 136.102 427.038 136.186 426.669 136.354C426.3 136.517 425.978 136.72 425.703 136.963L424.849 135.962C425.25 135.575 425.708 135.274 426.221 135.059C426.739 134.84 427.294 134.73 427.887 134.73C428.372 134.73 428.82 134.816 429.231 134.989C429.646 135.157 429.978 135.407 430.225 135.738C430.477 136.069 430.603 136.478 430.603 136.963C430.603 137.341 430.519 137.686 430.351 137.999C430.183 138.312 429.926 138.596 429.581 138.853L429.539 138.356C429.824 138.445 430.062 138.587 430.253 138.783C430.444 138.979 430.587 139.21 430.68 139.476C430.778 139.737 430.827 140.015 430.827 140.309C430.827 140.818 430.692 141.252 430.421 141.611C430.155 141.97 429.796 142.243 429.343 142.43C428.89 142.617 428.391 142.71 427.845 142.71ZM438.739 134.94V142.5H437.332V137.243L433.552 142.5H432.362V134.94H433.769V140.092L437.556 134.94H438.739ZM447.079 143.991V142.5H440.688V134.94H442.151V141.121H445.602V134.94H447.065V141.184H448.542V143.991H447.079ZM456.034 134.94V142.5H454.627V137.243L450.847 142.5H449.657V134.94H451.064V140.092L454.851 134.94H456.034ZM462.589 142.5V139.875H461.091C460.913 139.875 460.701 139.868 460.454 139.854C460.211 139.84 459.982 139.814 459.768 139.777C459.203 139.674 458.732 139.429 458.354 139.042C457.976 138.65 457.787 138.111 457.787 137.425C457.787 136.762 457.964 136.23 458.319 135.829C458.678 135.423 459.133 135.162 459.684 135.045C459.922 134.989 460.164 134.959 460.412 134.954C460.664 134.945 460.876 134.94 461.049 134.94H464.052L464.059 142.5H462.589ZM457.57 142.5L459.481 139.511H461.028L459.131 142.5H457.57ZM460.965 138.699H462.589V136.116H460.965C460.862 136.116 460.736 136.121 460.587 136.13C460.437 136.139 460.293 136.165 460.153 136.207C460.008 136.249 459.868 136.324 459.733 136.431C459.602 136.538 459.495 136.676 459.411 136.844C459.327 137.007 459.285 137.196 459.285 137.411C459.285 137.733 459.376 137.999 459.558 138.209C459.74 138.414 459.957 138.55 460.209 138.615C460.344 138.652 460.479 138.676 460.615 138.685C460.75 138.694 460.867 138.699 460.965 138.699Z" fill="#111111"/>
<rect x="154" y="171.5" width="140" height="16" rx="8" fill="#E9ECE2"/>
<rect x="154" y="207.5" width="252" height="16" rx="8" fill="url(#paint0_linear_1_390)"/>
<rect x="154" y="239.5" width="252" height="16" rx="8" fill="#EEF1E7"/>
<rect x="154" y="271.5" width="352" height="16" rx="8" fill="url(#paint1_linear_1_390)"/>
<rect x="154" y="303.5" width="252" height="16" rx="8" fill="#EEF1E7"/>
<line x1="330.5" y1="347.5" x2="330.5" y2="367.5" stroke="#C6C9BF" stroke-dasharray="5 5"/>
<rect x="246.5" y="371.5" width="167" height="40" rx="20" fill="#F8FBF1"/>
<rect x="246.5" y="371.5" width="167" height="40" rx="20" stroke="#E4E7DD"/>
<path d="M266.946 396.68C266.082 396.68 265.346 396.492 264.738 396.116C264.13 395.736 263.664 395.208 263.34 394.532C263.02 393.856 262.86 393.072 262.86 392.18C262.86 391.288 263.02 390.504 263.34 389.828C263.664 389.152 264.13 388.626 264.738 388.25C265.346 387.87 266.082 387.68 266.946 387.68C267.806 387.68 268.54 387.87 269.148 388.25C269.76 388.626 270.226 389.152 270.546 389.828C270.866 390.504 271.026 391.288 271.026 392.18C271.026 393.072 270.866 393.856 270.546 394.532C270.226 395.208 269.76 395.736 269.148 396.116C268.54 396.492 267.806 396.68 266.946 396.68ZM266.946 395.486C267.558 395.494 268.066 395.36 268.47 395.084C268.878 394.804 269.184 394.416 269.388 393.92C269.592 393.42 269.694 392.84 269.694 392.18C269.694 391.52 269.592 390.944 269.388 390.452C269.184 389.956 268.878 389.57 268.47 389.294C268.066 389.018 267.558 388.878 266.946 388.874C266.334 388.866 265.824 389 265.416 389.276C265.012 389.552 264.708 389.94 264.504 390.44C264.3 390.94 264.196 391.52 264.192 392.18C264.188 392.84 264.288 393.418 264.492 393.914C264.696 394.406 265.002 394.79 265.41 395.066C265.822 395.342 266.334 395.482 266.946 395.486ZM274.887 396.686C274.271 396.682 273.747 396.548 273.315 396.284C272.883 396.02 272.545 395.64 272.301 395.144C272.061 394.644 271.921 394.042 271.881 393.338C271.861 392.998 271.863 392.622 271.887 392.21C271.911 391.794 271.955 391.392 272.019 391.004C272.087 390.616 272.173 390.292 272.277 390.032C272.393 389.744 272.551 389.48 272.751 389.24C272.951 388.996 273.171 388.792 273.411 388.628C273.667 388.452 273.951 388.316 274.263 388.22C274.575 388.12 274.901 388.042 275.241 387.986C275.585 387.93 275.931 387.882 276.279 387.842C276.631 387.798 276.973 387.744 277.305 387.68L277.425 388.802C277.205 388.854 276.945 388.896 276.645 388.928C276.349 388.96 276.041 388.996 275.721 389.036C275.405 389.076 275.103 389.132 274.815 389.204C274.527 389.276 274.277 389.378 274.065 389.51C273.765 389.694 273.535 389.962 273.375 390.314C273.219 390.666 273.125 391.048 273.093 391.46C273.341 391.084 273.657 390.814 274.041 390.65C274.425 390.482 274.823 390.398 275.235 390.398C275.811 390.398 276.307 390.534 276.723 390.806C277.143 391.078 277.465 391.448 277.689 391.916C277.913 392.384 278.025 392.914 278.025 393.506C278.025 394.146 277.893 394.706 277.629 395.186C277.369 395.662 277.003 396.034 276.531 396.302C276.059 396.566 275.511 396.694 274.887 396.686ZM274.953 395.504C275.529 395.504 275.963 395.326 276.255 394.97C276.551 394.614 276.699 394.14 276.699 393.548C276.699 392.94 276.547 392.462 276.243 392.114C275.939 391.766 275.509 391.592 274.953 391.592C274.389 391.592 273.957 391.766 273.657 392.114C273.361 392.462 273.213 392.94 273.213 393.548C273.213 394.164 273.363 394.644 273.663 394.988C273.963 395.332 274.393 395.504 274.953 395.504ZM282.39 396.68C281.77 396.68 281.25 396.53 280.83 396.23C280.41 395.926 280.092 395.516 279.876 395C279.66 394.484 279.552 393.902 279.552 393.254C279.552 392.606 279.658 392.024 279.87 391.508C280.086 390.992 280.402 390.586 280.818 390.29C281.238 389.99 281.754 389.84 282.366 389.84C282.974 389.84 283.498 389.99 283.938 390.29C284.382 390.586 284.724 390.992 284.964 391.508C285.204 392.02 285.324 392.602 285.324 393.254C285.324 393.902 285.204 394.486 284.964 395.006C284.728 395.522 284.39 395.93 283.95 396.23C283.514 396.53 282.994 396.68 282.39 396.68ZM279.342 399.38V390.02H280.458V394.682H280.602V399.38H279.342ZM282.216 395.546C282.616 395.546 282.946 395.444 283.206 395.24C283.47 395.036 283.666 394.762 283.794 394.418C283.926 394.07 283.992 393.682 283.992 393.254C283.992 392.83 283.926 392.446 283.794 392.102C283.666 391.758 283.468 391.484 283.2 391.28C282.932 391.076 282.59 390.974 282.174 390.974C281.782 390.974 281.458 391.07 281.202 391.262C280.95 391.454 280.762 391.722 280.638 392.066C280.518 392.41 280.458 392.806 280.458 393.254C280.458 393.702 280.518 394.098 280.638 394.442C280.758 394.786 280.948 395.056 281.208 395.252C281.468 395.448 281.804 395.546 282.216 395.546ZM288.479 396.68C287.999 396.68 287.597 396.592 287.273 396.416C286.949 396.236 286.703 396 286.535 395.708C286.371 395.412 286.289 395.088 286.289 394.736C286.289 394.408 286.347 394.12 286.463 393.872C286.579 393.624 286.751 393.414 286.979 393.242C287.207 393.066 287.487 392.924 287.819 392.816C288.107 392.732 288.433 392.658 288.797 392.594C289.161 392.53 289.543 392.47 289.943 392.414C290.347 392.358 290.747 392.302 291.143 392.246L290.687 392.498C290.695 391.99 290.587 391.614 290.363 391.37C290.143 391.122 289.763 390.998 289.223 390.998C288.883 390.998 288.571 391.078 288.287 391.238C288.003 391.394 287.805 391.654 287.693 392.018L286.523 391.658C286.683 391.102 286.987 390.66 287.435 390.332C287.887 390.004 288.487 389.84 289.235 389.84C289.815 389.84 290.319 389.94 290.747 390.14C291.179 390.336 291.495 390.648 291.695 391.076C291.799 391.288 291.863 391.512 291.887 391.748C291.911 391.984 291.923 392.238 291.923 392.51V396.5H290.813V395.018L291.029 395.21C290.761 395.706 290.419 396.076 290.003 396.32C289.591 396.56 289.083 396.68 288.479 396.68ZM288.701 395.654C289.057 395.654 289.363 395.592 289.619 395.468C289.875 395.34 290.081 395.178 290.237 394.982C290.393 394.786 290.495 394.582 290.543 394.37C290.611 394.178 290.649 393.962 290.657 393.722C290.669 393.482 290.675 393.29 290.675 393.146L291.083 393.296C290.687 393.356 290.327 393.41 290.003 393.458C289.679 393.506 289.385 393.554 289.121 393.602C288.861 393.646 288.629 393.7 288.425 393.764C288.253 393.824 288.099 393.896 287.963 393.98C287.831 394.064 287.725 394.166 287.645 394.286C287.569 394.406 287.531 394.552 287.531 394.724C287.531 394.892 287.573 395.048 287.657 395.192C287.741 395.332 287.869 395.444 288.041 395.528C288.213 395.612 288.433 395.654 288.701 395.654ZM296.145 396.686C295.529 396.682 295.005 396.548 294.573 396.284C294.141 396.02 293.803 395.64 293.559 395.144C293.319 394.644 293.179 394.042 293.139 393.338C293.119 392.998 293.121 392.622 293.145 392.21C293.169 391.794 293.213 391.392 293.277 391.004C293.345 390.616 293.431 390.292 293.535 390.032C293.651 389.744 293.809 389.48 294.009 389.24C294.209 388.996 294.429 388.792 294.669 388.628C294.925 388.452 295.209 388.316 295.521 388.22C295.833 388.12 296.159 388.042 296.499 387.986C296.843 387.93 297.189 387.882 297.537 387.842C297.889 387.798 298.231 387.744 298.563 387.68L298.683 388.802C298.463 388.854 298.203 388.896 297.903 388.928C297.607 388.96 297.299 388.996 296.979 389.036C296.663 389.076 296.361 389.132 296.073 389.204C295.785 389.276 295.535 389.378 295.323 389.51C295.023 389.694 294.793 389.962 294.633 390.314C294.477 390.666 294.383 391.048 294.351 391.46C294.599 391.084 294.915 390.814 295.299 390.65C295.683 390.482 296.081 390.398 296.493 390.398C297.069 390.398 297.565 390.534 297.981 390.806C298.401 391.078 298.723 391.448 298.947 391.916C299.171 392.384 299.283 392.914 299.283 393.506C299.283 394.146 299.151 394.706 298.887 395.186C298.627 395.662 298.261 396.034 297.789 396.302C297.317 396.566 296.769 396.694 296.145 396.686ZM296.211 395.504C296.787 395.504 297.221 395.326 297.513 394.97C297.809 394.614 297.957 394.14 297.957 393.548C297.957 392.94 297.805 392.462 297.501 392.114C297.197 391.766 296.767 391.592 296.211 391.592C295.647 391.592 295.215 391.766 294.915 392.114C294.619 392.462 294.471 392.94 294.471 393.548C294.471 394.164 294.621 394.644 294.921 394.988C295.221 395.332 295.651 395.504 296.211 395.504ZM303.42 396.68C302.772 396.68 302.21 396.534 301.734 396.242C301.258 395.95 300.89 395.548 300.63 395.036C300.374 394.52 300.246 393.926 300.246 393.254C300.246 392.578 300.378 391.984 300.642 391.472C300.906 390.956 301.276 390.556 301.752 390.272C302.228 389.984 302.784 389.84 303.42 389.84C304.068 389.84 304.63 389.986 305.106 390.278C305.582 390.57 305.95 390.972 306.21 391.484C306.47 391.996 306.6 392.586 306.6 393.254C306.6 393.93 306.468 394.526 306.204 395.042C305.944 395.554 305.576 395.956 305.1 396.248C304.624 396.536 304.064 396.68 303.42 396.68ZM303.42 395.498C304.04 395.498 304.502 395.29 304.806 394.874C305.114 394.454 305.268 393.914 305.268 393.254C305.268 392.578 305.112 392.038 304.8 391.634C304.492 391.226 304.032 391.022 303.42 391.022C303 391.022 302.654 391.118 302.382 391.31C302.11 391.498 301.908 391.76 301.776 392.096C301.644 392.428 301.578 392.814 301.578 393.254C301.578 393.934 301.734 394.478 302.046 394.886C302.358 395.294 302.816 395.498 303.42 395.498ZM309.452 396.5V391.148H307.238V390.02H312.92V391.148H310.706V396.5H309.452ZM314.053 396.5L314.059 390.02H315.331V393.14L317.875 390.02H319.471L316.783 393.26L319.747 396.5H318.043L315.331 393.38V396.5H314.053ZM322.182 396.68C321.702 396.68 321.3 396.592 320.976 396.416C320.652 396.236 320.406 396 320.238 395.708C320.074 395.412 319.992 395.088 319.992 394.736C319.992 394.408 320.05 394.12 320.166 393.872C320.282 393.624 320.454 393.414 320.682 393.242C320.91 393.066 321.19 392.924 321.522 392.816C321.81 392.732 322.136 392.658 322.5 392.594C322.864 392.53 323.246 392.47 323.646 392.414C324.05 392.358 324.45 392.302 324.846 392.246L324.39 392.498C324.398 391.99 324.29 391.614 324.066 391.37C323.846 391.122 323.466 390.998 322.926 390.998C322.586 390.998 322.274 391.078 321.99 391.238C321.706 391.394 321.508 391.654 321.396 392.018L320.226 391.658C320.386 391.102 320.69 390.66 321.138 390.332C321.59 390.004 322.19 389.84 322.938 389.84C323.518 389.84 324.022 389.94 324.45 390.14C324.882 390.336 325.198 390.648 325.398 391.076C325.502 391.288 325.566 391.512 325.59 391.748C325.614 391.984 325.626 392.238 325.626 392.51V396.5H324.516V395.018L324.732 395.21C324.464 395.706 324.122 396.076 323.706 396.32C323.294 396.56 322.786 396.68 322.182 396.68ZM322.404 395.654C322.76 395.654 323.066 395.592 323.322 395.468C323.578 395.34 323.784 395.178 323.94 394.982C324.096 394.786 324.198 394.582 324.246 394.37C324.314 394.178 324.352 393.962 324.36 393.722C324.372 393.482 324.378 393.29 324.378 393.146L324.786 393.296C324.39 393.356 324.03 393.41 323.706 393.458C323.382 393.506 323.088 393.554 322.824 393.602C322.564 393.646 322.332 393.7 322.128 393.764C321.956 393.824 321.802 393.896 321.666 393.98C321.534 394.064 321.428 394.166 321.348 394.286C321.272 394.406 321.234 394.552 321.234 394.724C321.234 394.892 321.276 395.048 321.36 395.192C321.444 395.332 321.572 395.444 321.744 395.528C321.916 395.612 322.136 395.654 322.404 395.654ZM329.58 396.5V390.02H330.834V392.666H333.996V390.02H335.25V396.5H333.996V393.848H330.834V396.5H329.58ZM338.764 396.68C338.284 396.68 337.882 396.592 337.558 396.416C337.234 396.236 336.988 396 336.82 395.708C336.656 395.412 336.574 395.088 336.574 394.736C336.574 394.408 336.632 394.12 336.748 393.872C336.864 393.624 337.036 393.414 337.264 393.242C337.492 393.066 337.772 392.924 338.104 392.816C338.392 392.732 338.718 392.658 339.082 392.594C339.446 392.53 339.828 392.47 340.228 392.414C340.632 392.358 341.032 392.302 341.428 392.246L340.972 392.498C340.98 391.99 340.872 391.614 340.648 391.37C340.428 391.122 340.048 390.998 339.508 390.998C339.168 390.998 338.856 391.078 338.572 391.238C338.288 391.394 338.09 391.654 337.978 392.018L336.808 391.658C336.968 391.102 337.272 390.66 337.72 390.332C338.172 390.004 338.772 389.84 339.52 389.84C340.1 389.84 340.604 389.94 341.032 390.14C341.464 390.336 341.78 390.648 341.98 391.076C342.084 391.288 342.148 391.512 342.172 391.748C342.196 391.984 342.208 392.238 342.208 392.51V396.5H341.098V395.018L341.314 395.21C341.046 395.706 340.704 396.076 340.288 396.32C339.876 396.56 339.368 396.68 338.764 396.68ZM338.986 395.654C339.342 395.654 339.648 395.592 339.904 395.468C340.16 395.34 340.366 395.178 340.522 394.982C340.678 394.786 340.78 394.582 340.828 394.37C340.896 394.178 340.934 393.962 340.942 393.722C340.954 393.482 340.96 393.29 340.96 393.146L341.368 393.296C340.972 393.356 340.612 393.41 340.288 393.458C339.964 393.506 339.67 393.554 339.406 393.602C339.146 393.646 338.914 393.7 338.71 393.764C338.538 393.824 338.384 393.896 338.248 393.98C338.116 394.064 338.01 394.166 337.93 394.286C337.854 394.406 337.816 394.552 337.816 394.724C337.816 394.892 337.858 395.048 337.942 395.192C338.026 395.332 338.154 395.444 338.326 395.528C338.498 395.612 338.718 395.654 338.986 395.654ZM348.564 396.5V390.02H354.03V396.5H352.776V391.202H349.818V396.5H348.564ZM358.521 396.68C357.873 396.68 357.311 396.534 356.835 396.242C356.359 395.95 355.991 395.548 355.731 395.036C355.475 394.52 355.347 393.926 355.347 393.254C355.347 392.578 355.479 391.984 355.743 391.472C356.007 390.956 356.377 390.556 356.853 390.272C357.329 389.984 357.885 389.84 358.521 389.84C359.169 389.84 359.731 389.986 360.207 390.278C360.683 390.57 361.051 390.972 361.311 391.484C361.571 391.996 361.701 392.586 361.701 393.254C361.701 393.93 361.569 394.526 361.305 395.042C361.045 395.554 360.677 395.956 360.201 396.248C359.725 396.536 359.165 396.68 358.521 396.68ZM358.521 395.498C359.141 395.498 359.603 395.29 359.907 394.874C360.215 394.454 360.369 393.914 360.369 393.254C360.369 392.578 360.213 392.038 359.901 391.634C359.593 391.226 359.133 391.022 358.521 391.022C358.101 391.022 357.755 391.118 357.483 391.31C357.211 391.498 357.009 391.76 356.877 392.096C356.745 392.428 356.679 392.814 356.679 393.254C356.679 393.934 356.835 394.478 357.147 394.886C357.459 395.294 357.917 395.498 358.521 395.498ZM365.154 396.68C364.526 396.68 363.962 396.546 363.462 396.278C362.966 396.01 362.574 395.64 362.286 395.168L363.282 394.514C363.514 394.826 363.782 395.068 364.086 395.24C364.394 395.412 364.74 395.498 365.124 395.498C365.524 395.498 365.84 395.408 366.072 395.228C366.308 395.044 366.426 394.798 366.426 394.49C366.426 394.246 366.358 394.066 366.222 393.95C366.09 393.83 365.906 393.752 365.67 393.716C365.438 393.68 365.174 393.662 364.878 393.662H364.302V392.654H364.878C365.27 392.654 365.592 392.6 365.844 392.492C366.1 392.38 366.228 392.17 366.228 391.862C366.228 391.562 366.118 391.346 365.898 391.214C365.682 391.082 365.424 391.016 365.124 391.016C364.788 391.016 364.462 391.088 364.146 391.232C363.83 391.372 363.554 391.546 363.318 391.754L362.586 390.896C362.93 390.564 363.322 390.306 363.762 390.122C364.206 389.934 364.682 389.84 365.19 389.84C365.606 389.84 365.99 389.914 366.342 390.062C366.698 390.206 366.982 390.42 367.194 390.704C367.41 390.988 367.518 391.338 367.518 391.754C367.518 392.078 367.446 392.374 367.302 392.642C367.158 392.91 366.938 393.154 366.642 393.374L366.606 392.948C366.85 393.024 367.054 393.146 367.218 393.314C367.382 393.482 367.504 393.68 367.584 393.908C367.668 394.132 367.71 394.37 367.71 394.622C367.71 395.058 367.594 395.43 367.362 395.738C367.134 396.046 366.826 396.28 366.438 396.44C366.05 396.6 365.622 396.68 365.154 396.68ZM374.491 390.02V396.5H373.285V391.994L370.045 396.5H369.025V390.02H370.231V394.436L373.477 390.02H374.491ZM381.64 397.778V396.5H376.162V390.02H377.416V395.318H380.374V390.02H381.628V395.372H382.894V397.778H381.64ZM389.316 390.02V396.5H388.11V391.994L384.87 396.5H383.85V390.02H385.056V394.436L388.302 390.02H389.316ZM394.934 396.5V394.25H393.65C393.498 394.25 393.316 394.244 393.104 394.232C392.896 394.22 392.7 394.198 392.516 394.166C392.032 394.078 391.628 393.868 391.304 393.536C390.98 393.2 390.818 392.738 390.818 392.15C390.818 391.582 390.97 391.126 391.274 390.782C391.582 390.434 391.972 390.21 392.444 390.11C392.648 390.062 392.856 390.036 393.068 390.032C393.284 390.024 393.466 390.02 393.614 390.02H396.188L396.194 396.5H394.934ZM390.632 396.5L392.27 393.938H393.596L391.97 396.5H390.632ZM393.542 393.242H394.934V391.028H393.542C393.454 391.028 393.346 391.032 393.218 391.04C393.09 391.048 392.966 391.07 392.846 391.106C392.722 391.142 392.602 391.206 392.486 391.298C392.374 391.39 392.282 391.508 392.21 391.652C392.138 391.792 392.102 391.954 392.102 392.138C392.102 392.414 392.18 392.642 392.336 392.822C392.492 392.998 392.678 393.114 392.894 393.17C393.01 393.202 393.126 393.222 393.242 393.23C393.358 393.238 393.458 393.242 393.542 393.242Z" fill="#B3B3B3"/>
<line x1="330.5" y1="415.5" x2="330.5" y2="429.5" stroke="#C6C9BF" stroke-dasharray="5 5"/>
<rect x="258" y="433.5" width="144" height="32" rx="16" fill="#F8FBF1"/>
<rect x="258" y="433.5" width="144" height="32" rx="16" stroke="#E4E7DD"/>
<path d="M274.7 453V445.8H277.53C277.987 445.8 278.37 445.893 278.68 446.08C278.99 446.267 279.223 446.508 279.38 446.805C279.537 447.098 279.615 447.408 279.615 447.735C279.615 448.132 279.517 448.472 279.32 448.755C279.127 449.038 278.865 449.232 278.535 449.335L278.525 449.09C278.985 449.203 279.338 449.425 279.585 449.755C279.832 450.082 279.955 450.463 279.955 450.9C279.955 451.323 279.87 451.692 279.7 452.005C279.533 452.318 279.288 452.563 278.965 452.74C278.645 452.913 278.257 453 277.8 453H274.7ZM275.76 452.005H277.64C277.877 452.005 278.088 451.96 278.275 451.87C278.465 451.78 278.613 451.652 278.72 451.485C278.83 451.315 278.885 451.113 278.885 450.88C278.885 450.663 278.837 450.468 278.74 450.295C278.647 450.118 278.51 449.98 278.33 449.88C278.153 449.777 277.945 449.725 277.705 449.725H275.76V452.005ZM275.76 448.74H277.515C277.708 448.74 277.882 448.702 278.035 448.625C278.192 448.545 278.315 448.432 278.405 448.285C278.498 448.135 278.545 447.955 278.545 447.745C278.545 447.465 278.452 447.235 278.265 447.055C278.078 446.875 277.828 446.785 277.515 446.785H275.76V448.74ZM282.875 453.15C282.352 453.15 281.882 453.038 281.465 452.815C281.052 452.592 280.725 452.283 280.485 451.89L281.315 451.345C281.508 451.605 281.732 451.807 281.985 451.95C282.242 452.093 282.53 452.165 282.85 452.165C283.183 452.165 283.447 452.09 283.64 451.94C283.837 451.787 283.935 451.582 283.935 451.325C283.935 451.122 283.878 450.972 283.765 450.875C283.655 450.775 283.502 450.71 283.305 450.68C283.112 450.65 282.892 450.635 282.645 450.635H282.165V449.795H282.645C282.972 449.795 283.24 449.75 283.45 449.66C283.663 449.567 283.77 449.392 283.77 449.135C283.77 448.885 283.678 448.705 283.495 448.595C283.315 448.485 283.1 448.43 282.85 448.43C282.57 448.43 282.298 448.49 282.035 448.61C281.772 448.727 281.542 448.872 281.345 449.045L280.735 448.33C281.022 448.053 281.348 447.838 281.715 447.685C282.085 447.528 282.482 447.45 282.905 447.45C283.252 447.45 283.572 447.512 283.865 447.635C284.162 447.755 284.398 447.933 284.575 448.17C284.755 448.407 284.845 448.698 284.845 449.045C284.845 449.315 284.785 449.562 284.665 449.785C284.545 450.008 284.362 450.212 284.115 450.395L284.085 450.04C284.288 450.103 284.458 450.205 284.595 450.345C284.732 450.485 284.833 450.65 284.9 450.84C284.97 451.027 285.005 451.225 285.005 451.435C285.005 451.798 284.908 452.108 284.715 452.365C284.525 452.622 284.268 452.817 283.945 452.95C283.622 453.083 283.265 453.15 282.875 453.15ZM288.501 453.15C287.965 453.15 287.493 453.033 287.086 452.8C286.683 452.563 286.368 452.235 286.141 451.815C285.918 451.392 285.806 450.902 285.806 450.345C285.806 449.755 285.916 449.243 286.136 448.81C286.36 448.377 286.67 448.042 287.066 447.805C287.463 447.568 287.925 447.45 288.451 447.45C289.001 447.45 289.47 447.578 289.856 447.835C290.243 448.088 290.531 448.45 290.721 448.92C290.915 449.39 290.991 449.948 290.951 450.595H289.906V450.215C289.9 449.588 289.78 449.125 289.546 448.825C289.316 448.525 288.965 448.375 288.491 448.375C287.968 448.375 287.575 448.54 287.311 448.87C287.048 449.2 286.916 449.677 286.916 450.3C286.916 450.893 287.048 451.353 287.311 451.68C287.575 452.003 287.955 452.165 288.451 452.165C288.778 452.165 289.06 452.092 289.296 451.945C289.536 451.795 289.723 451.582 289.856 451.305L290.881 451.63C290.671 452.113 290.353 452.488 289.926 452.755C289.5 453.018 289.025 453.15 288.501 453.15ZM286.576 450.595V449.78H290.431V450.595H286.576ZM291.922 453V447.6H292.797L294.792 451.56L296.782 447.6H297.662V453H296.652V449.74L295.027 453H294.552L292.927 449.74V453H291.922ZM300.59 453.15C300.19 453.15 299.855 453.077 299.585 452.93C299.315 452.78 299.11 452.583 298.97 452.34C298.834 452.093 298.765 451.823 298.765 451.53C298.765 451.257 298.814 451.017 298.91 450.81C299.007 450.603 299.15 450.428 299.34 450.285C299.53 450.138 299.764 450.02 300.04 449.93C300.28 449.86 300.552 449.798 300.855 449.745C301.159 449.692 301.477 449.642 301.81 449.595C302.147 449.548 302.48 449.502 302.81 449.455L302.43 449.665C302.437 449.242 302.347 448.928 302.16 448.725C301.977 448.518 301.66 448.415 301.21 448.415C300.927 448.415 300.667 448.482 300.43 448.615C300.194 448.745 300.029 448.962 299.935 449.265L298.96 448.965C299.094 448.502 299.347 448.133 299.72 447.86C300.097 447.587 300.597 447.45 301.22 447.45C301.704 447.45 302.124 447.533 302.48 447.7C302.84 447.863 303.104 448.123 303.27 448.48C303.357 448.657 303.41 448.843 303.43 449.04C303.45 449.237 303.46 449.448 303.46 449.675V453H302.535V451.765L302.715 451.925C302.492 452.338 302.207 452.647 301.86 452.85C301.517 453.05 301.094 453.15 300.59 453.15ZM300.775 452.295C301.072 452.295 301.327 452.243 301.54 452.14C301.754 452.033 301.925 451.898 302.055 451.735C302.185 451.572 302.27 451.402 302.31 451.225C302.367 451.065 302.399 450.885 302.405 450.685C302.415 450.485 302.42 450.325 302.42 450.205L302.76 450.33C302.43 450.38 302.13 450.425 301.86 450.465C301.59 450.505 301.345 450.545 301.125 450.585C300.909 450.622 300.715 450.667 300.545 450.72C300.402 450.77 300.274 450.83 300.16 450.9C300.05 450.97 299.962 451.055 299.895 451.155C299.832 451.255 299.8 451.377 299.8 451.52C299.8 451.66 299.835 451.79 299.905 451.91C299.975 452.027 300.082 452.12 300.225 452.19C300.369 452.26 300.552 452.295 300.775 452.295ZM304.754 453V447.6H305.799V449.805H308.434V447.6H309.479V453H308.434V450.79H305.799V453H304.754ZM313.277 453.15C312.74 453.15 312.268 453.033 311.862 452.8C311.458 452.563 311.143 452.235 310.917 451.815C310.693 451.392 310.582 450.902 310.582 450.345C310.582 449.755 310.692 449.243 310.912 448.81C311.135 448.377 311.445 448.042 311.842 447.805C312.238 447.568 312.7 447.45 313.227 447.45C313.777 447.45 314.245 447.578 314.632 447.835C315.018 448.088 315.307 448.45 315.497 448.92C315.69 449.39 315.767 449.948 315.727 450.595H314.682V450.215C314.675 449.588 314.555 449.125 314.322 448.825C314.092 448.525 313.74 448.375 313.267 448.375C312.743 448.375 312.35 448.54 312.087 448.87C311.823 449.2 311.692 449.677 311.692 450.3C311.692 450.893 311.823 451.353 312.087 451.68C312.35 452.003 312.73 452.165 313.227 452.165C313.553 452.165 313.835 452.092 314.072 451.945C314.312 451.795 314.498 451.582 314.632 451.305L315.657 451.63C315.447 452.113 315.128 452.488 314.702 452.755C314.275 453.018 313.8 453.15 313.277 453.15ZM311.352 450.595V449.78H315.207V450.595H311.352ZM318.845 453V447.6H319.89V449.805H322.525V447.6H323.57V453H322.525V450.79H319.89V453H318.845ZM326.498 453.15C326.098 453.15 325.763 453.077 325.493 452.93C325.223 452.78 325.018 452.583 324.878 452.34C324.742 452.093 324.673 451.823 324.673 451.53C324.673 451.257 324.722 451.017 324.818 450.81C324.915 450.603 325.058 450.428 325.248 450.285C325.438 450.138 325.672 450.02 325.948 449.93C326.188 449.86 326.46 449.798 326.763 449.745C327.067 449.692 327.385 449.642 327.718 449.595C328.055 449.548 328.388 449.502 328.718 449.455L328.338 449.665C328.345 449.242 328.255 448.928 328.068 448.725C327.885 448.518 327.568 448.415 327.118 448.415C326.835 448.415 326.575 448.482 326.338 448.615C326.102 448.745 325.937 448.962 325.843 449.265L324.868 448.965C325.002 448.502 325.255 448.133 325.628 447.86C326.005 447.587 326.505 447.45 327.128 447.45C327.612 447.45 328.032 447.533 328.388 447.7C328.748 447.863 329.012 448.123 329.178 448.48C329.265 448.657 329.318 448.843 329.338 449.04C329.358 449.237 329.368 449.448 329.368 449.675V453H328.443V451.765L328.623 451.925C328.4 452.338 328.115 452.647 327.768 452.85C327.425 453.05 327.002 453.15 326.498 453.15ZM326.683 452.295C326.98 452.295 327.235 452.243 327.448 452.14C327.662 452.033 327.833 451.898 327.963 451.735C328.093 451.572 328.178 451.402 328.218 451.225C328.275 451.065 328.307 450.885 328.313 450.685C328.323 450.485 328.328 450.325 328.328 450.205L328.668 450.33C328.338 450.38 328.038 450.425 327.768 450.465C327.498 450.505 327.253 450.545 327.033 450.585C326.817 450.622 326.623 450.667 326.453 450.72C326.31 450.77 326.182 450.83 326.068 450.9C325.958 450.97 325.87 451.055 325.803 451.155C325.74 451.255 325.708 451.377 325.708 451.52C325.708 451.66 325.743 451.79 325.813 451.91C325.883 452.027 325.99 452.12 326.133 452.19C326.277 452.26 326.46 452.295 326.683 452.295ZM332.269 454.2V452.16C332.565 452.16 332.777 452.062 332.904 451.865C333.034 451.665 333.137 451.327 333.214 450.85C333.26 450.56 333.299 450.252 333.329 449.925C333.362 449.598 333.39 449.245 333.414 448.865C333.437 448.482 333.46 448.06 333.484 447.6H337.354V452.16H337.884V454.2H336.894V453H333.264V454.2H332.269ZM333.764 452.16H336.304V448.44H334.414C334.4 448.66 334.385 448.887 334.369 449.12C334.355 449.353 334.339 449.585 334.319 449.815C334.302 450.045 334.282 450.265 334.259 450.475C334.235 450.685 334.209 450.875 334.179 451.045C334.139 451.308 334.09 451.528 334.034 451.705C333.98 451.882 333.89 452.033 333.764 452.16ZM341.225 453.15C340.685 453.15 340.216 453.028 339.82 452.785C339.423 452.542 339.116 452.207 338.9 451.78C338.686 451.35 338.58 450.855 338.58 450.295C338.58 449.732 338.69 449.237 338.91 448.81C339.13 448.38 339.438 448.047 339.835 447.81C340.231 447.57 340.695 447.45 341.225 447.45C341.765 447.45 342.233 447.572 342.63 447.815C343.026 448.058 343.333 448.393 343.55 448.82C343.766 449.247 343.875 449.738 343.875 450.295C343.875 450.858 343.765 451.355 343.545 451.785C343.328 452.212 343.021 452.547 342.625 452.79C342.228 453.03 341.761 453.15 341.225 453.15ZM341.225 452.165C341.741 452.165 342.126 451.992 342.38 451.645C342.636 451.295 342.765 450.845 342.765 450.295C342.765 449.732 342.635 449.282 342.375 448.945C342.118 448.605 341.735 448.435 341.225 448.435C340.875 448.435 340.586 448.515 340.36 448.675C340.133 448.832 339.965 449.05 339.855 449.33C339.745 449.607 339.69 449.928 339.69 450.295C339.69 450.862 339.82 451.315 340.08 451.655C340.34 451.995 340.721 452.165 341.225 452.165ZM344.968 453L344.973 447.6H346.033V450.2L348.153 447.6H349.483L347.243 450.3L349.713 453H348.293L346.033 450.4V453H344.968ZM350.948 455.4L351.993 452.555L352.008 453.395L349.653 447.6H350.743L352.503 452.075H352.183L353.863 447.6H354.923L351.943 455.4H350.948ZM355.701 453V447.6H356.576L358.571 451.56L360.561 447.6H361.441V453H360.431V449.74L358.806 453H358.331L356.706 449.74V453H355.701ZM365.24 453.15C364.703 453.15 364.231 453.033 363.825 452.8C363.421 452.563 363.106 452.235 362.88 451.815C362.656 451.392 362.545 450.902 362.545 450.345C362.545 449.755 362.655 449.243 362.875 448.81C363.098 448.377 363.408 448.042 363.805 447.805C364.201 447.568 364.663 447.45 365.19 447.45C365.74 447.45 366.208 447.578 366.595 447.835C366.981 448.088 367.27 448.45 367.46 448.92C367.653 449.39 367.73 449.948 367.69 450.595H366.645V450.215C366.638 449.588 366.518 449.125 366.285 448.825C366.055 448.525 365.703 448.375 365.23 448.375C364.706 448.375 364.313 448.54 364.05 448.87C363.786 449.2 363.655 449.677 363.655 450.3C363.655 450.893 363.786 451.353 364.05 451.68C364.313 452.003 364.693 452.165 365.19 452.165C365.516 452.165 365.798 452.092 366.035 451.945C366.275 451.795 366.461 451.582 366.595 451.305L367.62 451.63C367.41 452.113 367.091 452.488 366.665 452.755C366.238 453.018 365.763 453.15 365.24 453.15ZM363.315 450.595V449.78H367.17V450.595H363.315ZM368.806 453V447.6H369.851V449.805H372.486V447.6H373.531V453H372.486V450.79H369.851V453H368.806ZM376.329 453V448.54H374.484V447.6H379.219V448.54H377.374V453H376.329ZM384.719 447.6V453H383.714V449.245L381.014 453H380.164V447.6H381.169V451.28L383.874 447.6H384.719Z" fill="#B3B3B3"/>
</g>
<defs>
<filter id="filter0_f_1_390" x="58" y="-73.5" width="733" height="678" filterUnits="userSpaceOnUse" color-interpolation-filters="sRGB">
<feFlood flood-opacity="0" result="BackgroundImageFix"/>
<feBlend mode="normal" in="SourceGraphic" in2="BackgroundImageFix" result="shape"/>
<feGaussianBlur stdDeviation="100" result="effect1_foregroundBlur_1_390"/>
</filter>
<linearGradient id="paint0_linear_1_390" x1="406" y1="215.5" x2="154" y2="215.5" gradientUnits="userSpaceOnUse">
<stop stop-color="#F4F7ED"/>
<stop offset="1" stop-color="#EEF1E7"/>
</linearGradient>
<linearGradient id="paint1_linear_1_390" x1="506" y1="279.5" x2="154" y2="279.5" gradientUnits="userSpaceOnUse">
<stop stop-color="#F4F7ED"/>
<stop offset="1" stop-color="#EEF1E7"/>
</linearGradient>
<clipPath id="clip0_1_390">
<rect y="0.5" width="660" height="495" rx="40" fill="white"/>
</clipPath>
</defs>
</svg>
